<?xml version="1.0" encoding="UTF-8"?><svg id="Layer_1" xmlns="http://www.w3.org/2000/svg" viewBox="0 0 1425 1484"><defs><style>.cls-1{fill:#fff;}.cls-2{fill:#e79fe4;}</style></defs><rect class="cls-2" x="-2275" y="-1258" width="6000" height="4000"/><g><path class="cls-1" d="M338,330h476.67c111,0,201.31,90.7,201.31,201.7,0,75.02-42.03,143.1-106.14,177.62l149.07,149.08c100.44-75.52,163.54-195.75,163.54-326.52,0-224.85-182.93-407.88-407.78-407.88H132V444h206v-114Z"/><polygon class="cls-1" points="585.69 617.27 338 863.73 338 619 132 619 132 1359.75 585.45 908.72 1036.02 1357 1328.09 1357 585.69 617.27"/><rect class="cls-1" x="498" y="1183" width="73" height="70"/><rect class="cls-1" x="602" y="1183" width="72" height="70"/><rect class="cls-1" x="498" y="1285" width="73" height="72"/><rect class="cls-1" x="602" y="1285" width="72" height="72"/></g></svg>